<?xml version="1.0" encoding="utf-8"?>
<!-- Generator: Adobe Illustrator 23.0.0, SVG Export Plug-In . SVG Version: 6.00 Build 0)  -->
<svg version="1.1" id="图层_1" xmlns="http://www.w3.org/2000/svg" xmlns:xlink="http://www.w3.org/1999/xlink" x="0px" y="0px"
	 viewBox="20 16 70.98 70.32" style="enable-background:new 0 0 70.98 70.32;" xml:space="preserve">
<style type="text/css">
	.st0{fill:#FFFFFF;}
	.st1{fill:#006FFA;}
	.st2{fill:#44AFFA;}
</style>
<g>
	<circle class="st0" cx="55.19" cy="49.01" r="18.34"/>
	<g>
		<path class="st1" d="M73.7,31.85c-1.39-0.27-2.82-0.42-4.3-0.42c-5.43,0-10.36,1.95-14.01,5.13c0,0,0,0,0,0
			c0,2.05,0.46,3.99,1.27,5.73c0.26,0.57,0.57,1.12,0.91,1.64c1.05,1.62,2.43,3.01,4.06,4.05c0.52,0.34,1.07,0.64,1.63,0.9
			c1.74,0.81,3.68,1.27,5.73,1.27l0,0v0l0,0c3.18,3.65,5.13,8.58,5.13,14.01c0,1.47-0.14,2.91-0.42,4.3
			c9.18-1.81,16.07-9.32,16.07-18.3S82.88,33.67,73.7,31.85z"/>
		<path class="st2" d="M68.99,50.16L68.99,50.16c-2.05,0-3.99,0.46-5.73,1.27c-0.57,0.26-1.11,0.57-1.63,0.9
			c-1.62,1.05-3,2.42-4.05,4.04c0,0-0.01,0.01-0.01,0.01c-0.15,0.23-0.29,0.47-0.43,0.71c-1,1.77-1.61,3.79-1.72,5.94
			c0,0.03,0,0.06,0,0.09c-0.01,0.21-0.02,0.41-0.02,0.62l0,0.01v0v0v0l0,0l0,0c-3.65,3.18-8.58,5.13-14,5.13
			c-1.47,0-2.91-0.14-4.3-0.42c1.81,9.18,9.32,16.07,18.3,16.07c8.98,0,16.49-6.88,18.3-16.07c0.27-1.39,0.42-2.82,0.42-4.3
			C74.12,58.74,72.17,53.81,68.99,50.16z"/>
		<path class="st2" d="M55.39,15.79c-8.98,0-16.49,6.88-18.3,16.07c-0.27,1.39-0.42,2.82-0.42,4.3c0,5.43,1.95,10.36,5.13,14.01h0
			c2.72,0,5.24-0.8,7.37-2.17c1.62-1.05,3-2.43,4.05-4.05c0.34-0.52,0.64-1.07,0.91-1.64c0.81-1.74,1.27-3.68,1.27-5.72l0,0
			c0,0,0,0,0,0c3.65-3.18,8.58-5.13,14.01-5.13c1.47,0,2.91,0.14,4.3,0.42C71.88,22.67,64.38,15.79,55.39,15.79z"/>
		<path class="st1" d="M55.39,63.75c0-2.71-0.8-5.24-2.17-7.36c-1.05-1.62-2.43-3.01-4.05-4.05c-2.12-1.37-4.65-2.17-7.37-2.17l0,0
			l0,0l0,0l0,0l0,0c-3.18-3.65-5.13-8.58-5.13-14.01c0-1.47,0.14-2.91,0.42-4.3c-9.18,1.81-16.07,9.32-16.07,18.3
			s6.88,16.49,16.07,18.3c1.39,0.27,2.82,0.42,4.3,0.42C46.81,68.88,51.74,66.93,55.39,63.75L55.39,63.75z"/>
	</g>
</g>
</svg>
